<svg xmlns="http://www.w3.org/2000/svg" width="512" height="682.667" preserveAspectRatio="xMidYMid meet" version="1.0" viewBox="0 0 384 512"><g fill="#000" stroke="none"><path d="M2005 4788 c-606 -61 -1193 -394 -1559 -887 -658 -885 -579 -2113 188 -2900 192 -196 384 -336 621 -452 755 -369 1639 -286 2319 219 145 108 253 217 261 265 16 84 -22 153 -99 182 -38 15 -54 15 -117 5 -120 -19 -315 -24 -434 -11 -534 58 -990 331 -1286 770 -213 315 -308 651 -296 1041 13 409 150 765 422 1088 100 120 218 222 378 329 70 47 135 96 144 110 9 14 18 48 21 76 4 58 -18 101 -71 141 -46 34 -278 46 -492 24z" transform="translate(0.000000,512.000000) scale(0.100000,-0.100000)"/></g></svg>